<svg width="35" height="44" viewBox="0 0 35 44" fill="none" xmlns="http://www.w3.org/2000/svg">
<path fill-rule="evenodd" clip-rule="evenodd" d="M7.31255 36.0715C8.03719 34.097 8.93655 32.6299 10.2581 31.2593C11.5562 29.915 12.7154 29.2331 14.989 28.4755C19.4836 26.9786 23.2759 23.9549 25.9773 19.7121C26.609 18.7203 27.3135 17.3749 27.5431 16.7217C27.9665 15.5118 28.2823 15.2764 29.5065 15.2592C30.4103 15.2454 32.0914 14.3707 33.0513 13.4133C34.0996 12.3675 34.1197 12.503 33.3581 15.5772C32.2897 19.8935 30.2871 23.5106 27.1029 26.8741C23.5077 30.6715 19.805 32.7608 14.1109 34.2037C11.6447 34.8294 9.23559 35.851 8.01031 36.7924C6.73351 37.7739 6.69991 37.7394 7.31255 36.0715Z" fill="#61C2A9"/>
<path fill-rule="evenodd" clip-rule="evenodd" d="M0.404637 32.8117C0.403517 32.7061 0.291517 31.6454 0.229917 30.6088C-0.218083 23.1196 -0.0321629 19.5265 0.971357 16.2847C2.18208 12.3748 3.86432 9.44988 6.3944 6.85093C8.97824 4.19803 12.1053 2.36246 15.6859 1.39934C17.6336 0.875876 19.168 0.603813 20.6229 0.526901L21.5278 0.477539L20.867 1.13416C20.503 1.49577 20.1032 1.9492 19.9766 2.14435C19.3965 3.0386 19.0381 4.02584 19.0381 4.73182C19.037 5.56982 18.9115 5.72479 18.0805 5.9188C15.6848 6.47899 13.0058 7.82094 11.0502 9.43954C8.5784 11.4863 6.63408 14.611 5.868 17.7702C5.44352 19.5219 5.38528 20.1372 5.35056 23.2665L5.30688 26.3338L3.83408 28.5781C3.25728 29.3495 1.77328 31.0875 1.54816 31.4112C1.01952 32.1746 0.405757 33.0413 0.404637 32.8117Z" fill="#61C2A9"/>
<mask id="mask0_7644_5705" style="mask-type:luminance" maskUnits="userSpaceOnUse" x="0" y="0" width="35" height="44">
<path fill-rule="evenodd" clip-rule="evenodd" d="M0.272461 0.192871H34.3685V44.0002H0.272461V0.192871Z" fill="white"/>
</mask>
<g mask="url(#mask0_7644_5705)">
<path fill-rule="evenodd" clip-rule="evenodd" d="M0.293909 43.762C0.538069 42.2983 0.614229 37.1372 0.436149 34.2225C0.391349 33.489 0.381269 32.8714 0.412629 32.8485C0.443989 32.8266 0.586229 32.6315 0.728469 32.4157C1.11039 31.836 2.64479 29.7502 4.15903 27.7527C4.89151 26.7862 5.51311 25.9332 5.54223 25.8586C5.61279 25.6681 7.85503 23.0278 9.30879 21.4218C10.7648 19.8124 14.0229 16.5121 15.7073 14.9394C19.7561 11.1603 22.9045 8.59468 26.1413 6.43884C26.867 5.95556 27.4617 5.53311 27.4629 5.50097C27.4651 5.46883 26.2073 5.44243 24.6696 5.44243C22.4833 5.44243 21.8729 5.42062 21.8741 5.3437C21.8763 5.09345 22.1238 4.33007 22.3646 3.83186C22.9302 2.6621 24.0368 1.61403 25.4289 0.928707C26.6419 0.332924 28.0184 0.133182 30.4152 0.207798C31.6976 0.246828 34.0361 0.450014 34.1123 0.528075C34.203 0.621058 34.3677 3.11325 34.3688 4.4219C34.371 7.51102 34.0093 8.84608 32.8008 10.2041C31.9877 11.1167 31.1073 11.7091 29.7869 12.2302C29.1037 12.5 28.7688 12.5723 28.7688 12.4506C28.7688 12.4185 28.8169 12.1085 28.8763 11.763C29.0678 10.6426 29.1765 8.54877 29.0846 7.72569C29.0398 7.31932 28.9693 6.95083 28.9278 6.90835C28.8774 6.85784 28.752 6.90835 28.5616 7.05414C27.8493 7.60056 23.1385 12.5103 20.716 15.2321C18.0739 18.2007 16.152 20.6125 13.2176 24.6418C9.01423 30.4102 5.93647 34.979 1.84623 41.5235C1.00847 42.8631 0.307349 43.9755 0.286069 43.9973C0.264789 44.0191 0.269269 43.9135 0.293909 43.762Z" fill="#5CA4D2"/>
</g>
</svg>
